<svg xmlns="http://www.w3.org/2000/svg" viewBox="0 0 1200 675"><rect width="1200" height="675" fill="#ebe5d8"/><circle cx="1060" cy="80" r="260" fill="#e3aa47" opacity=".82"/><rect x="110" y="110" width="720" height="380" rx="28" fill="#faf6ec"/><g fill="#243235"><rect x="160" y="145" width="145" height="145" rx="14"/><rect x="330" y="145" width="145" height="145" rx="14"/><rect x="500" y="145" width="145" height="145" rx="14"/><rect x="670" y="145" width="115" height="145" rx="14"/><rect x="150" y="405" width="155" height="170" rx="10"/><rect x="330" y="405" width="155" height="170" rx="10"/><rect x="510" y="405" width="155" height="170" rx="10"/><rect x="690" y="405" width="120" height="170" rx="10"/></g><rect x="135" y="365" width="700" height="48" rx="12" fill="#dca541"/><path d="M535 388c34-16 78-16 112 0-34 16-78 16-112 0Z" fill="none" stroke="#243235" stroke-width="5"/><path d="M580 360c0-38 44-38 44 0" fill="none" stroke="#243235" stroke-width="7"/><g stroke="#243235" stroke-width="14"><path d="M900 240 850 570M980 240l55 330"/></g><g stroke="#dca541" stroke-width="8"><path d="M890 300h100M880 365h125M870 435h150M860 510h175"/></g><rect x="835" y="535" width="235" height="88" rx="20" fill="#243235"/><rect x="925" y="510" width="60" height="32" fill="#dca541"/></svg>
