<svg xmlns="http://www.w3.org/2000/svg" viewBox="0 0 1200 675"><rect width="1200" height="675" fill="#ead8bd"/><circle cx="1030" cy="80" r="250" fill="#c8874e" opacity=".55"/><rect x="95" y="105" width="720" height="390" rx="28" fill="#f6ead8"/><g fill="#543925"><rect x="145" y="145" width="150" height="150" rx="12"/><rect x="320" y="145" width="150" height="150" rx="12"/><rect x="495" y="145" width="150" height="150" rx="12"/><rect x="670" y="145" width="100" height="150" rx="12"/><rect x="140" y="405" width="160" height="170" rx="10"/><rect x="325" y="405" width="160" height="170" rx="10"/><rect x="510" y="405" width="160" height="170" rx="10"/><rect x="695" y="405" width="95" height="170" rx="10"/></g><rect x="125" y="365" width="705" height="48" rx="12" fill="#b67b49"/><rect x="810" y="345" width="320" height="235" rx="22" fill="#985f36"/><rect x="775" y="320" width="390" height="62" rx="14" fill="#dbc09e"/><g stroke="#d7a16d" stroke-width="4" fill="none"><path d="M835 390c90-28 180-28 270 0M835 435c90-28 180-28 270 0M835 480c90-28 180-28 270 0M835 525c90-28 180-28 270 0"/></g><rect x="895" y="155" width="190" height="145" rx="14" fill="#744728"/><g stroke="#c58c58" stroke-width="5"><path d="M930 175v105M990 175v105M1050 175v105"/></g></svg>
